<svg version="1.1" id="Layer_1" xmlns="http://www.w3.org/2000/svg" xmlns:xlink="http://www.w3.org/1999/xlink" x="0px" y="0px"
	 width="100%" viewBox="0 0 735 689" enable-background="new 0 0 735 689" xml:space="preserve">
<path fill="#101C28" opacity="1.000000" stroke="none" 
	d="
M448.000000,690.000000 
	C298.666656,690.000000 149.833328,690.000000 1.000000,690.000000 
	C1.000000,460.333344 1.000000,230.666672 1.000000,1.000000 
	C246.000000,1.000000 491.000000,1.000000 736.000000,1.000000 
	C736.000000,230.666672 736.000000,460.333344 736.000000,690.000000 
	C640.166687,690.000000 544.333313,690.000000 448.000000,690.000000 
M334.591644,538.470276 
	C352.728424,541.607849 370.865204,544.745422 389.487671,548.043762 
	C389.657745,548.031372 389.827789,548.018921 390.725494,548.269287 
	C418.776306,552.439636 446.953979,554.901184 475.331573,553.784180 
	C481.256134,553.550964 487.128845,552.000122 493.529236,551.061707 
	C493.685242,550.999573 493.841248,550.937378 494.758667,550.847595 
	C498.191742,549.606445 501.624847,548.365295 505.792511,547.004089 
	C511.087982,545.693298 512.349426,542.340149 510.149292,537.682312 
	C505.750244,528.369019 501.230957,519.110596 496.621826,509.899323 
	C494.745087,506.148743 492.375000,506.182343 489.871857,509.525116 
	C482.988708,518.716858 476.097687,527.903564 469.097382,537.005859 
	C468.057587,538.357971 466.410400,539.242920 465.044250,540.343994 
	C463.976166,538.973877 462.576111,537.751160 461.892181,536.210510 
	C456.151123,523.277283 450.544159,510.284546 444.891022,497.312256 
	C441.866882,490.372742 440.480255,490.194305 435.757843,496.389771 
	C427.984436,506.587921 420.269745,516.831238 412.585999,527.097168 
	C408.047028,533.161438 406.844696,533.116150 403.881653,526.318848 
	C398.491394,513.953369 393.243256,501.525482 387.795990,489.185364 
	C384.877625,482.574127 383.067261,482.322021 378.599792,488.064209 
	C370.112885,498.972839 361.795349,510.014008 353.473633,521.050049 
	C349.893494,525.797913 348.768738,525.718445 346.292603,520.230713 
	C342.457825,511.731873 338.774323,503.160034 334.723236,494.765564 
	C332.574707,490.313538 330.029327,489.849670 327.161926,493.489655 
	C320.263550,502.246613 313.687347,511.259979 307.103027,520.259033 
	C306.052795,521.694336 305.170441,523.563416 305.067963,525.283081 
	C304.985748,526.662415 305.881866,529.045776 306.894043,529.396729 
	C315.846527,532.500732 324.921936,535.250244 334.591644,538.470276 
M317.558807,78.122604 
	C315.363251,85.776230 312.428986,93.303436 311.093964,101.104332 
	C303.392212,146.107529 296.083862,191.177979 288.605499,236.219528 
	C286.803314,247.073883 291.015839,252.485641 302.002411,252.657089 
	C305.964722,252.718918 309.957916,252.027298 313.906067,251.462997 
	C319.017273,250.732483 324.078613,249.645447 329.194092,248.953461 
	C371.208405,243.269974 412.971344,245.681747 454.641083,252.625473 
	C480.392059,256.916565 505.843536,262.030640 528.727539,275.442993 
	C567.741821,298.309387 594.950439,330.001099 604.432800,375.437103 
	C612.758850,415.332703 609.277283,453.817352 593.887512,491.567719 
	C572.074585,545.074036 524.338684,582.791992 459.344818,580.661743 
	C416.558105,579.259277 374.386322,573.382874 332.749603,563.537048 
	C309.837891,558.119202 287.241272,552.061218 267.044861,539.072998 
	C253.532715,530.383423 246.010040,534.823975 245.142441,551.039307 
	C243.614594,579.594666 262.478882,602.808044 291.393280,607.817261 
	C298.451691,609.040100 305.552307,610.041077 312.654572,610.985779 
	C387.809906,620.983398 462.966980,630.968323 538.129517,640.911987 
	C562.410767,644.124207 586.648315,647.846436 611.017090,650.168640 
	C636.651245,652.611450 659.326050,638.106079 668.539856,614.061768 
	C671.421753,606.541199 672.891846,598.314758 673.915405,590.272400 
	C684.538757,506.796173 694.934143,423.290924 705.402283,339.794922 
	C714.398804,268.036560 723.532593,196.295074 732.354004,124.515213 
	C736.307190,92.348511 714.858154,63.147942 683.076477,57.092236 
	C675.918579,55.728348 668.518555,55.352360 661.210205,55.105045 
	C601.917786,53.098576 542.621582,51.202656 483.324677,49.331657 
	C445.849121,48.149185 408.376556,46.659157 370.890747,46.088379 
	C347.247650,45.728378 329.365814,56.534954 317.558807,78.122604 
M172.429703,532.928833 
	C209.271301,516.980957 246.117004,501.042511 282.952606,485.080780 
	C298.542450,478.325317 314.243866,471.807129 329.652283,464.658813 
	C345.459290,457.325623 351.119690,442.321655 344.663788,426.368683 
	C340.227448,415.406189 335.587860,404.525970 331.135254,393.569916 
	C314.077057,351.596588 297.000793,309.630402 280.067993,267.606476 
	C276.308380,258.275909 270.544159,250.959686 261.678925,246.041382 
	C230.360931,228.666611 199.043564,211.289658 167.825348,193.736740 
	C157.876648,188.142929 148.086075,187.836914 137.700348,192.381119 
	C100.311661,208.740265 62.814777,224.852112 25.425962,241.210983 
	C5.678267,249.851318 -0.834965,266.804779 7.629994,286.734070 
	C17.137951,309.118866 26.688337,331.485657 36.200211,353.868774 
	C60.240517,410.439758 84.241051,467.027710 108.318939,523.582703 
	C116.480621,542.753113 133.294891,549.564148 152.483139,541.588013 
	C158.942200,538.903137 165.317719,536.017273 172.429703,532.928833 
M417.911499,275.682770 
	C391.973145,273.334198 366.043274,272.010406 340.134155,276.083160 
	C331.206177,277.486603 330.077850,279.081207 332.093872,288.039703 
	C332.349579,289.175873 332.724640,290.285004 333.037628,291.408508 
	C336.077881,302.321411 339.107635,313.237244 342.166443,324.144928 
	C342.585144,325.638062 343.146240,327.091278 343.899841,329.330872 
	C355.530426,315.397797 366.555664,302.189941 378.200897,288.239349 
	C379.579834,290.809937 380.328552,292.047119 380.930389,293.352020 
	C387.001312,306.514618 393.066345,319.680054 399.095032,332.862061 
	C402.748596,340.850677 404.903046,341.069305 410.199677,333.896515 
	C410.694550,333.226318 411.150116,332.526276 411.660828,331.868744 
	C418.811188,322.662445 425.734436,313.266022 433.202850,304.325104 
	C438.445953,298.048279 440.891815,298.511810 443.944702,305.881653 
	C448.725861,317.423615 453.172852,329.104034 457.755432,340.728180 
	C462.520416,352.814911 463.357300,352.987579 472.776001,343.821838 
	C481.374451,335.454285 489.924500,327.035950 498.600800,318.749878 
	C503.047974,314.502716 505.406860,315.010223 507.904022,320.621613 
	C509.867493,325.033783 511.678558,329.519745 513.394592,334.034821 
	C516.295044,341.666107 519.002319,349.370911 521.912781,356.998260 
	C524.294373,363.239502 525.565735,363.414093 529.740479,358.450439 
	C533.386658,354.115204 536.882202,349.626099 540.823669,345.573914 
	C544.845764,341.438751 549.330200,337.753235 553.612244,333.870850 
	C552.121765,331.877075 551.670410,330.984406 551.070007,330.206787 
	C549.747253,328.493652 548.435486,326.758881 546.968811,325.171967 
	C529.931824,306.737518 509.335510,293.193115 485.244110,287.067810 
	C463.549622,281.551941 441.001007,279.395447 417.911499,275.682770 
M478.562408,453.059509 
	C474.411499,458.133453 470.260559,463.207367 465.309204,469.259705 
	C470.341858,470.912292 473.885620,472.149536 477.473541,473.241760 
	C495.147095,478.621796 508.621674,489.512817 518.503784,504.894897 
	C522.998657,511.891449 526.919434,519.256104 531.129150,526.437073 
	C531.927124,527.798279 532.859619,529.080627 533.954529,530.739380 
	C544.625977,523.108521 552.673767,513.946899 559.251343,503.412292 
	C569.058960,487.704498 574.608704,470.238678 580.208679,452.783051 
	C581.536194,448.644897 580.064697,445.630554 576.507568,444.134674 
	C568.417236,440.732605 560.364746,436.651550 551.873413,434.900940 
	C525.033508,429.367615 500.226501,433.851074 478.562408,453.059509 
M384.534454,411.104095 
	C396.376343,412.546143 405.780090,405.339996 406.046997,394.618866 
	C406.298859,384.500427 397.822174,376.408813 387.435852,376.853210 
	C379.215515,377.204987 372.407379,383.089294 371.054962,391.011353 
	C369.531921,399.932922 374.159668,407.172516 384.534454,411.104095 
M438.047485,448.700165 
	C439.300934,448.287170 440.630493,448.024567 441.794891,447.435516 
	C447.220123,444.691223 449.905792,438.403839 448.166443,432.741333 
	C446.406128,427.010712 440.649353,423.014008 434.919983,423.544861 
	C428.931732,424.099701 424.135406,428.823547 423.469543,434.822266 
	C422.609863,442.567261 428.355530,448.390625 438.047485,448.700165 
z"/>
<path fill="#2D6FA0" opacity="1.000000" stroke="none" 
	d="
M317.726929,77.790466 
	C329.365814,56.534954 347.247650,45.728378 370.890747,46.088379 
	C408.376556,46.659157 445.849121,48.149185 483.324677,49.331657 
	C542.621582,51.202656 601.917786,53.098576 661.210205,55.105045 
	C668.518555,55.352360 675.918579,55.728348 683.076477,57.092236 
	C714.858154,63.147942 736.307190,92.348511 732.354004,124.515213 
	C723.532593,196.295074 714.398804,268.036560 705.402283,339.794922 
	C694.934143,423.290924 684.538757,506.796173 673.915405,590.272400 
	C672.891846,598.314758 671.421753,606.541199 668.539856,614.061768 
	C659.326050,638.106079 636.651245,652.611450 611.017090,650.168640 
	C586.648315,647.846436 562.410767,644.124207 538.129517,640.911987 
	C462.966980,630.968323 387.809906,620.983398 312.654572,610.985779 
	C305.552307,610.041077 298.451691,609.040100 291.393280,607.817261 
	C262.478882,602.808044 243.614594,579.594666 245.142441,551.039307 
	C246.010040,534.823975 253.532715,530.383423 267.044861,539.072998 
	C287.241272,552.061218 309.837891,558.119202 332.749603,563.537048 
	C374.386322,573.382874 416.558105,579.259277 459.344818,580.661743 
	C524.338684,582.791992 572.074585,545.074036 593.887512,491.567719 
	C609.277283,453.817352 612.758850,415.332703 604.432800,375.437103 
	C594.950439,330.001099 567.741821,298.309387 528.727539,275.442993 
	C505.843536,262.030640 480.392059,256.916565 454.641083,252.625473 
	C412.971344,245.681747 371.208405,243.269974 329.194092,248.953461 
	C324.078613,249.645447 319.017273,250.732483 313.906067,251.462997 
	C309.957916,252.027298 305.964722,252.718918 302.002411,252.657089 
	C291.015839,252.485641 286.803314,247.073883 288.605499,236.219528 
	C296.083862,191.177979 303.392212,146.107529 311.093964,101.104332 
	C312.428986,93.303436 315.363251,85.776230 317.726929,77.790466 
M566.915039,224.408768 
	C569.718201,218.990448 573.495117,213.849579 575.133423,208.099380 
	C579.286011,193.524323 570.553284,177.997055 556.448303,173.294006 
	C543.041199,168.823654 528.538269,175.346542 523.338928,188.941223 
	C521.494446,193.764099 521.104187,199.312683 520.908813,204.561920 
	C520.486084,215.922562 524.377441,225.485443 535.368958,230.239517 
	C546.598633,235.096619 557.201782,233.310806 566.915039,224.408768 
M378.338165,203.820984 
	C385.084381,195.895248 388.902954,186.835709 388.143463,176.325989 
	C387.139313,162.431198 375.125702,152.959961 361.948151,155.349213 
	C346.369476,158.173813 333.290161,177.638901 336.528839,193.179230 
	C340.461426,212.049271 362.491364,217.996490 378.338165,203.820984 
M506.899933,157.515427 
	C505.884766,167.196228 512.142334,172.989609 520.683533,169.613922 
	C544.681091,160.129532 568.565918,150.355576 592.407898,140.484787 
	C599.109802,137.710114 601.431091,132.061417 598.947144,126.469719 
	C596.251831,120.402267 590.860718,118.487801 583.892273,121.358582 
	C560.802917,130.870758 537.695679,140.343918 514.730957,150.149521 
	C511.783936,151.407852 509.636292,154.538300 506.899933,157.515427 
M372.215332,118.310753 
	C369.676575,116.433434 367.180939,114.494148 364.590240,112.691460 
	C358.879303,108.717575 352.962372,109.122414 349.482300,113.644447 
	C345.740845,118.506218 346.443085,124.829567 352.074341,128.987839 
	C366.242859,139.450333 380.605164,149.657150 395.064819,159.714783 
	C399.795624,163.005356 405.296082,161.624069 408.763336,157.095016 
	C412.614868,152.063995 411.577087,146.128067 405.805878,141.995560 
	C394.861511,134.158813 383.802185,126.482620 372.215332,118.310753 
z"/>
<path fill="#3B83B5" opacity="1.000000" stroke="none" 
	d="
M172.080551,533.076050 
	C165.317719,536.017273 158.942200,538.903137 152.483139,541.588013 
	C133.294891,549.564148 116.480621,542.753113 108.318939,523.582703 
	C84.241051,467.027710 60.240517,410.439758 36.200211,353.868774 
	C26.688337,331.485657 17.137951,309.118866 7.629994,286.734070 
	C-0.834965,266.804779 5.678267,249.851318 25.425962,241.210983 
	C62.814777,224.852112 100.311661,208.740265 137.700348,192.381119 
	C148.086075,187.836914 157.876648,188.142929 167.825348,193.736740 
	C199.043564,211.289658 230.360931,228.666611 261.678925,246.041382 
	C270.544159,250.959686 276.308380,258.275909 280.067993,267.606476 
	C297.000793,309.630402 314.077057,351.596588 331.135254,393.569916 
	C335.587860,404.525970 340.227448,415.406189 344.663788,426.368683 
	C351.119690,442.321655 345.459290,457.325623 329.652283,464.658813 
	C314.243866,471.807129 298.542450,478.325317 282.952606,485.080780 
	C246.117004,501.042511 209.271301,516.980957 172.080551,533.076050 
M227.394714,297.848175 
	C231.814468,295.899170 236.247940,293.980530 240.649780,291.991882 
	C244.438934,290.279968 248.403336,288.828766 251.911377,286.651794 
	C257.133545,283.411072 258.695740,277.359467 256.196564,272.259460 
	C253.532318,266.822632 248.589096,265.024902 242.269135,267.309021 
	C240.080475,268.100037 237.977539,269.130005 235.841507,270.064697 
	C223.328781,275.539948 210.850082,281.094696 198.291550,286.462708 
	C192.720062,288.844177 190.572311,287.899200 187.944992,282.462433 
	C186.859085,280.215302 185.931213,277.889984 184.976074,275.581757 
	C177.269897,256.958710 169.612488,238.315369 161.856949,219.712921 
	C158.712830,212.171478 152.848526,209.204498 146.546982,211.719147 
	C140.033432,214.318390 138.012711,220.697189 141.231857,228.551804 
	C141.989716,230.401001 142.812958,232.223282 143.586945,234.066010 
	C151.585495,253.108856 159.393295,272.234619 167.631256,291.173279 
	C175.062393,308.257141 189.370697,313.894836 206.523148,306.884491 
	C213.305618,304.112457 219.977234,301.069183 227.394714,297.848175 
z"/>
<path fill="#4089BB" opacity="1.000000" stroke="none" 
	d="
M418.370300,275.720032 
	C441.001007,279.395447 463.549622,281.551941 485.244110,287.067810 
	C509.335510,293.193115 529.931824,306.737518 546.968811,325.171967 
	C548.435486,326.758881 549.747253,328.493652 551.070007,330.206787 
	C551.670410,330.984406 552.121765,331.877075 553.612244,333.870850 
	C549.330200,337.753235 544.845764,341.438751 540.823669,345.573914 
	C536.882202,349.626099 533.386658,354.115204 529.740479,358.450439 
	C525.565735,363.414093 524.294373,363.239502 521.912781,356.998260 
	C519.002319,349.370911 516.295044,341.666107 513.394592,334.034821 
	C511.678558,329.519745 509.867493,325.033783 507.904022,320.621613 
	C505.406860,315.010223 503.047974,314.502716 498.600800,318.749878 
	C489.924500,327.035950 481.374451,335.454285 472.776001,343.821838 
	C463.357300,352.987579 462.520416,352.814911 457.755432,340.728180 
	C453.172852,329.104034 448.725861,317.423615 443.944702,305.881653 
	C440.891815,298.511810 438.445953,298.048279 433.202850,304.325104 
	C425.734436,313.266022 418.811188,322.662445 411.660828,331.868744 
	C411.150116,332.526276 410.694550,333.226318 410.199677,333.896515 
	C404.903046,341.069305 402.748596,340.850677 399.095032,332.862061 
	C393.066345,319.680054 387.001312,306.514618 380.930389,293.352020 
	C380.328552,292.047119 379.579834,290.809937 378.200897,288.239349 
	C366.555664,302.189941 355.530426,315.397797 343.899841,329.330872 
	C343.146240,327.091278 342.585144,325.638062 342.166443,324.144928 
	C339.107635,313.237244 336.077881,302.321411 333.037628,291.408508 
	C332.724640,290.285004 332.349579,289.175873 332.093872,288.039703 
	C330.077850,279.081207 331.206177,277.486603 340.134155,276.083160 
	C366.043274,272.010406 391.973145,273.334198 418.370300,275.720032 
z"/>
<path fill="#4089BB" opacity="1.000000" stroke="none" 
	d="
M389.997864,548.006470 
	C389.827789,548.018921 389.657745,548.031372 388.998901,547.716003 
	C386.684143,546.673340 384.916199,545.637512 383.022827,545.294861 
	C369.126404,542.780029 355.215302,540.340942 341.281281,538.045105 
	C338.908875,537.654175 336.404449,538.064331 333.961029,538.104492 
	C324.921936,535.250244 315.846527,532.500732 306.894043,529.396729 
	C305.881866,529.045776 304.985748,526.662415 305.067963,525.283081 
	C305.170441,523.563416 306.052795,521.694336 307.103027,520.259033 
	C313.687347,511.259979 320.263550,502.246613 327.161926,493.489655 
	C330.029327,489.849670 332.574707,490.313538 334.723236,494.765564 
	C338.774323,503.160034 342.457825,511.731873 346.292603,520.230713 
	C348.768738,525.718445 349.893494,525.797913 353.473633,521.050049 
	C361.795349,510.014008 370.112885,498.972839 378.599792,488.064209 
	C383.067261,482.322021 384.877625,482.574127 387.795990,489.185364 
	C393.243256,501.525482 398.491394,513.953369 403.881653,526.318848 
	C406.844696,533.116150 408.047028,533.161438 412.585999,527.097168 
	C420.269745,516.831238 427.984436,506.587921 435.757843,496.389771 
	C440.480255,490.194305 441.866882,490.372742 444.891022,497.312256 
	C450.544159,510.284546 456.151123,523.277283 461.892181,536.210510 
	C462.576111,537.751160 463.976166,538.973877 465.044250,540.343994 
	C466.410400,539.242920 468.057587,538.357971 469.097382,537.005859 
	C476.097687,527.903564 482.988708,518.716858 489.871857,509.525116 
	C492.375000,506.182343 494.745087,506.148743 496.621826,509.899323 
	C501.230957,519.110596 505.750244,528.369019 510.149292,537.682312 
	C512.349426,542.340149 511.087982,545.693298 505.108154,546.960571 
	C500.948242,548.236450 497.472748,549.555786 493.997253,550.875122 
	C493.841248,550.937378 493.685242,550.999573 492.918396,550.925659 
	C490.833710,550.662842 489.325928,550.267883 487.891113,550.449463 
	C466.031799,553.215454 444.200256,552.254089 422.387299,549.974609 
	C419.490906,549.671997 416.696991,548.393250 413.800507,548.085510 
	C408.587402,547.531616 403.335632,547.213013 398.093842,547.111145 
	C395.402008,547.058777 392.696960,547.686279 389.997864,548.006470 
z"/>
<path fill="#214C70" opacity="1.000000" stroke="none" 
	d="
M478.821289,452.815430 
	C500.226501,433.851074 525.033508,429.367615 551.873413,434.900940 
	C560.364746,436.651550 568.417236,440.732605 576.507568,444.134674 
	C580.064697,445.630554 581.536194,448.644897 580.208679,452.783051 
	C574.608704,470.238678 569.058960,487.704498 559.251343,503.412292 
	C552.673767,513.946899 544.625977,523.108521 533.954529,530.739380 
	C532.859619,529.080627 531.927124,527.798279 531.129150,526.437073 
	C526.919434,519.256104 522.998657,511.891449 518.503784,504.894897 
	C508.621674,489.512817 495.147095,478.621796 477.473541,473.241760 
	C473.885620,472.149536 470.341858,470.912292 465.309204,469.259705 
	C470.260559,463.207367 474.411499,458.133453 478.821289,452.815430 
z"/>
<path fill="#2D70A1" opacity="1.000000" stroke="none" 
	d="
M384.153534,411.005432 
	C374.159668,407.172516 369.531921,399.932922 371.054962,391.011353 
	C372.407379,383.089294 379.215515,377.204987 387.435852,376.853210 
	C397.822174,376.408813 406.298859,384.500427 406.046997,394.618866 
	C405.780090,405.339996 396.376343,412.546143 384.153534,411.005432 
z"/>
<path fill="#204B6F" opacity="1.000000" stroke="none" 
	d="
M437.650024,448.745880 
	C428.355530,448.390625 422.609863,442.567261 423.469543,434.822266 
	C424.135406,428.823547 428.931732,424.099701 434.919983,423.544861 
	C440.649353,423.014008 446.406128,427.010712 448.166443,432.741333 
	C449.905792,438.403839 447.220123,444.691223 441.794891,447.435516 
	C440.630493,448.024567 439.300934,448.287170 437.650024,448.745880 
z"/>
<path fill="#3E86B6" opacity="1.000000" stroke="none" 
	d="
M390.361694,548.137878 
	C392.696960,547.686279 395.402008,547.058777 398.093842,547.111145 
	C403.335632,547.213013 408.587402,547.531616 413.800507,548.085510 
	C416.696991,548.393250 419.490906,549.671997 422.387299,549.974609 
	C444.200256,552.254089 466.031799,553.215454 487.891113,550.449463 
	C489.325928,550.267883 490.833710,550.662842 492.666504,550.923096 
	C487.128845,552.000122 481.256134,553.550964 475.331573,553.784180 
	C446.953979,554.901184 418.776306,552.439636 390.361694,548.137878 
z"/>
<path fill="#3E86B6" opacity="1.000000" stroke="none" 
	d="
M334.276337,538.287354 
	C336.404449,538.064331 338.908875,537.654175 341.281281,538.045105 
	C355.215302,540.340942 369.126404,542.780029 383.022827,545.294861 
	C384.916199,545.637512 386.684143,546.673340 388.756073,547.635620 
	C370.865204,544.745422 352.728424,541.607849 334.276337,538.287354 
z"/>
<path fill="#3E86B6" opacity="1.000000" stroke="none" 
	d="
M494.377960,550.861328 
	C497.472748,549.555786 500.948242,548.236450 504.740845,547.020630 
	C501.624847,548.365295 498.191742,549.606445 494.377960,550.861328 
z"/>
<path fill="#101C28" opacity="1.000000" stroke="none" 
	d="
M566.666748,224.664429 
	C557.201782,233.310806 546.598633,235.096619 535.368958,230.239517 
	C524.377441,225.485443 520.486084,215.922562 520.908813,204.561920 
	C521.104187,199.312683 521.494446,193.764099 523.338928,188.941223 
	C528.538269,175.346542 543.041199,168.823654 556.448303,173.294006 
	C570.553284,177.997055 579.286011,193.524323 575.133423,208.099380 
	C573.495117,213.849579 569.718201,218.990448 566.666748,224.664429 
z"/>
<path fill="#101C28" opacity="1.000000" stroke="none" 
	d="
M378.086670,204.075638 
	C362.491364,217.996490 340.461426,212.049271 336.528839,193.179230 
	C333.290161,177.638901 346.369476,158.173813 361.948151,155.349213 
	C375.125702,152.959961 387.139313,162.431198 388.143463,176.325989 
	C388.902954,186.835709 385.084381,195.895248 378.086670,204.075638 
z"/>
<path fill="#101D29" opacity="1.000000" stroke="none" 
	d="
M507.009155,157.158447 
	C509.636292,154.538300 511.783936,151.407852 514.730957,150.149521 
	C537.695679,140.343918 560.802917,130.870758 583.892273,121.358582 
	C590.860718,118.487801 596.251831,120.402267 598.947144,126.469719 
	C601.431091,132.061417 599.109802,137.710114 592.407898,140.484787 
	C568.565918,150.355576 544.681091,160.129532 520.683533,169.613922 
	C512.142334,172.989609 505.884766,167.196228 507.009155,157.158447 
z"/>
<path fill="#101D29" opacity="1.000000" stroke="none" 
	d="
M372.502991,118.525238 
	C383.802185,126.482620 394.861511,134.158813 405.805878,141.995560 
	C411.577087,146.128067 412.614868,152.063995 408.763336,157.095016 
	C405.296082,161.624069 399.795624,163.005356 395.064819,159.714783 
	C380.605164,149.657150 366.242859,139.450333 352.074341,128.987839 
	C346.443085,124.829567 345.740845,118.506218 349.482300,113.644447 
	C352.962372,109.122414 358.879303,108.717575 364.590240,112.691460 
	C367.180939,114.494148 369.676575,116.433434 372.502991,118.525238 
z"/>
<path fill="#111D29" opacity="1.000000" stroke="none" 
	d="
M227.047028,297.998779 
	C219.977234,301.069183 213.305618,304.112457 206.523148,306.884491 
	C189.370697,313.894836 175.062393,308.257141 167.631256,291.173279 
	C159.393295,272.234619 151.585495,253.108856 143.586945,234.066010 
	C142.812958,232.223282 141.989716,230.401001 141.231857,228.551804 
	C138.012711,220.697189 140.033432,214.318390 146.546982,211.719147 
	C152.848526,209.204498 158.712830,212.171478 161.856949,219.712921 
	C169.612488,238.315369 177.269897,256.958710 184.976074,275.581757 
	C185.931213,277.889984 186.859085,280.215302 187.944992,282.462433 
	C190.572311,287.899200 192.720062,288.844177 198.291550,286.462708 
	C210.850082,281.094696 223.328781,275.539948 235.841507,270.064697 
	C237.977539,269.130005 240.080475,268.100037 242.269135,267.309021 
	C248.589096,265.024902 253.532318,266.822632 256.196564,272.259460 
	C258.695740,277.359467 257.133545,283.411072 251.911377,286.651794 
	C248.403336,288.828766 244.438934,290.279968 240.649780,291.991882 
	C236.247940,293.980530 231.814468,295.899170 227.047028,297.998779 
z"/>
</svg>